<?xml version="1.0" standalone="no"?><!DOCTYPE svg PUBLIC "-//W3C//DTD SVG 1.1//EN" "http://www.w3.org/Graphics/SVG/1.1/DTD/svg11.dtd"><svg t="1565508165003" class="icon" viewBox="0 0 1024 1024" version="1.1" xmlns="http://www.w3.org/2000/svg" p-id="1196" xmlns:xlink="http://www.w3.org/1999/xlink" width="200" height="200"><defs><style type="text/css"></style></defs><path d="M278.755556 580.266667c-11.377778-11.377778-28.444444-11.377778-39.822223 0-11.377778 11.377778-11.377778 28.444444 0 39.822222 0 0 39.822222 45.511111 0 91.022222-56.888889 68.266667-22.755556 136.533333 0 164.977778 5.688889 5.688889 11.377778 11.377778 22.755556 11.377778 5.688889 0 11.377778 0 17.066667-5.688889 11.377778-11.377778 11.377778-28.444444 0-39.822222 0 0-39.822222-45.511111 0-91.022223 56.888889-73.955556 22.755556-142.222222 0-170.666666zM534.755556 580.266667c-11.377778-11.377778-28.444444-11.377778-39.822223 0-11.377778 11.377778-11.377778 28.444444 0 39.822222 0 0 39.822222 45.511111 0 91.022222-56.888889 68.266667-22.755556 136.533333 0 164.977778 5.688889 5.688889 11.377778 11.377778 22.755556 11.377778 5.688889 0 11.377778 0 17.066667-5.688889 11.377778-11.377778 11.377778-28.444444 0-39.822222 0 0-39.822222-45.511111 0-91.022223 56.888889-73.955556 22.755556-142.222222 0-170.666666zM790.755556 580.266667c-11.377778-11.377778-28.444444-11.377778-39.822223 0-11.377778 11.377778-11.377778 28.444444 0 39.822222 0 0 39.822222 45.511111 0 91.022222-56.888889 68.266667-22.755556 136.533333 0 164.977778 5.688889 5.688889 11.377778 11.377778 22.755556 11.377778 5.688889 0 11.377778 0 17.066667-5.688889 11.377778-11.377778 11.377778-28.444444 0-39.822222 0 0-39.822222-45.511111 0-91.022223 56.888889-73.955556 22.755556-142.222222 0-170.666666zM910.222222 113.777778H113.777778c-34.133333 0-56.888889 22.755556-56.888889 56.888889v199.111111C56.888889 449.422222 119.466667 512 199.111111 512h625.777778C904.533333 512 967.111111 449.422222 967.111111 369.777778V170.666667c0-34.133333-22.755556-56.888889-56.888889-56.888889z m0 256c0 45.511111-39.822222 85.333333-85.333333 85.333333h-625.777778C153.6 455.111111 113.777778 415.288889 113.777778 369.777778V170.666667h796.444444v199.111111z" fill="#333333" p-id="1197"></path><path d="M199.111111 369.777778H682.666667c17.066667 0 28.444444-11.377778 28.444444-28.444445s-11.377778-28.444444-28.444444-28.444444H199.111111c-17.066667 0-28.444444 11.377778-28.444444 28.444444s11.377778 28.444444 28.444444 28.444445zM768 369.777778h56.888889c17.066667 0 28.444444-11.377778 28.444444-28.444445s-11.377778-28.444444-28.444444-28.444444h-56.888889c-17.066667 0-28.444444 11.377778-28.444444 28.444444s11.377778 28.444444 28.444444 28.444445z" fill="#333333" p-id="1198"></path></svg>